<svg width="47" height="47" xmlns="http://www.w3.org/2000/svg" xmlns:xlink="http://www.w3.org/1999/xlink" xml:space="preserve" overflow="hidden"><g transform="translate(-184 -204)"><path d="M227.573 223.094 226.893 223.094C226.203 223.097 225.608 223.577 225.458 224.251L224.432 228.969 190.568 228.969 189.54 224.251C189.391 223.578 188.796 223.098 188.107 223.094L187.427 223.094C186.616 223.094 185.958 223.751 185.958 224.562L185.958 232.885C185.96 234.237 187.055 235.332 188.406 235.333L190.854 235.333 190.854 237.781 191.833 237.781 191.833 235.333 223.167 235.333 223.167 237.781 224.146 237.781 224.146 235.333 226.594 235.333C227.945 235.332 229.04 234.237 229.042 232.885L229.042 224.562C229.042 223.751 228.384 223.094 227.573 223.094ZM228.062 232.885C228.062 233.697 227.405 234.354 226.594 234.354L188.406 234.354C187.595 234.354 186.938 233.697 186.938 232.885L186.938 224.562C186.938 224.292 187.157 224.073 187.427 224.073L188.107 224.073C188.337 224.073 188.536 224.234 188.585 224.459L189.777 229.948 225.223 229.948 226.417 224.458C226.465 224.234 226.664 224.074 226.893 224.073L227.573 224.073C227.843 224.073 228.062 224.292 228.062 224.562Z"/><path d="M188.896 220.646C188.896 219.835 189.553 219.177 190.365 219.177L224.635 219.177C225.447 219.177 226.104 219.835 226.104 220.646L226.104 222.115 227.083 222.115 227.083 220.646C227.082 219.295 225.987 218.2 224.635 218.198L190.365 218.198C189.013 218.2 187.918 219.295 187.917 220.646L187.917 222.115 188.896 222.115Z"/></g></svg>