<svg width="26" height="26" xmlns="http://www.w3.org/2000/svg" xmlns:xlink="http://www.w3.org/1999/xlink" xml:space="preserve" overflow="hidden"><g transform="translate(-108 -514)"><path d="M127.277 520.777 127.223 520.764C127.098 520.736 126.972 520.809 126.935 520.931 126.864 521.182 126.726 521.409 126.536 521.586 126.302 521.83 125.994 521.99 125.66 522.041 124.779 522.206 124.09 522.896 123.925 523.777 123.807 524.455 123.276 524.986 122.598 525.106 121.717 525.271 121.028 525.96 120.862 526.841 120.744 527.52 120.213 528.051 119.534 528.169 118.653 528.334 117.964 529.023 117.799 529.904 117.681 530.583 117.15 531.114 116.472 531.233 116.039 531.305 115.641 531.515 115.336 531.831 115.081 532.073 114.896 532.38 114.8 532.718 114.762 532.847 114.837 532.982 114.966 533.02 114.971 533.021 114.975 533.022 114.98 533.023L115.034 533.035C115.159 533.065 115.285 532.991 115.321 532.868 115.392 532.618 115.53 532.392 115.72 532.214 115.953 531.97 116.261 531.811 116.595 531.76 117.475 531.595 118.164 530.906 118.328 530.026 118.447 529.348 118.978 528.817 119.655 528.699 120.536 528.534 121.225 527.845 121.39 526.964 121.509 526.285 122.04 525.753 122.719 525.635 123.6 525.47 124.29 524.781 124.454 523.899 124.573 523.22 125.105 522.688 125.784 522.57 126.217 522.497 126.616 522.287 126.92 521.971 127.176 521.729 127.362 521.422 127.457 521.083 127.496 520.954 127.422 520.819 127.293 520.781 127.287 520.779 127.282 520.778 127.277 520.777Z"/><path d="M130.384 521.829 129.758 521.204C130.432 520.364 130.37 519.153 129.613 518.388 128.851 517.629 127.639 517.572 126.808 518.254L126.171 517.616C125.219 516.664 123.676 516.664 122.724 517.616 122.724 517.616 122.724 517.616 122.724 517.616L111.616 528.724C110.666 529.676 110.666 531.218 111.616 532.171L112.254 532.808C111.572 533.639 111.63 534.851 112.387 535.612 113.145 536.385 114.369 536.447 115.201 535.755L115.829 536.384C116.781 537.336 118.324 537.336 119.276 536.384 119.276 536.384 119.276 536.384 119.276 536.384L130.384 525.276C131.334 524.324 131.334 522.782 130.384 521.829ZM111.999 529.107 123.107 517.999C123.847 517.259 125.047 517.259 125.788 517.999 125.788 517.999 125.788 517.999 125.788 517.999L126.418 518.63 112.63 532.418 111.999 531.788C111.26 531.047 111.26 529.847 111.999 529.107ZM113.877 535.694C113.461 535.691 113.064 535.524 112.77 535.23 112.168 534.625 112.168 533.648 112.77 533.043L127.043 518.77C127.648 518.17 128.625 518.17 129.23 518.77 129.827 519.372 129.839 520.34 129.257 520.957L114.99 535.223C114.693 535.517 114.295 535.685 113.877 535.694ZM130.001 524.893 118.893 536.001C118.153 536.741 116.953 536.741 116.212 536.001 116.212 536.001 116.212 536.001 116.212 536.001L115.595 535.384 129.384 521.595 130.001 522.212C130.74 522.953 130.74 524.153 130.001 524.893Z"/></g></svg>