<svg width="26" height="27" xmlns="http://www.w3.org/2000/svg" xmlns:xlink="http://www.w3.org/1999/xlink" xml:space="preserve" overflow="hidden"><g transform="translate(-250 -612)"><path d="M14.625 5.64904C15.8216 5.64904 16.7917 4.679 16.7917 3.48238 16.7917 2.28576 15.8216 1.31571 14.625 1.31571 13.4284 1.31571 12.4583 2.28576 12.4583 3.48238 12.4583 4.679 13.4284 5.64904 14.625 5.64904ZM14.625 1.85738C15.5225 1.85738 16.25 2.58491 16.25 3.48238 16.25 4.37984 15.5225 5.10738 14.625 5.10738 13.7275 5.10738 13 4.37984 13 3.48238 13.0006 2.58499 13.7276 1.85749 14.625 1.85629Z" transform="matrix(1 0 0 1.03846 250 612)"/><path d="M11.1042 19.0206C11.0808 19.138 11.0286 19.2476 10.9522 19.3397L7.2689 23.8114C7.1253 23.9981 6.90235 24.1065 6.66683 24.1042 6.48949 24.1059 6.31743 24.0438 6.18204 23.9292 5.85536 23.6537 5.81322 23.1658 6.08779 22.8383L9.60863 18.5534C9.63668 18.5194 9.65602 18.4791 9.66496 18.4359L10.218 15.7335C10.0393 15.598 9.88612 15.4317 9.76571 15.2425L9.14821 18.2615 5.66935 22.4943C5.20585 23.0511 5.27933 23.8778 5.83375 24.3441 6.38809 24.8056 7.21153 24.7303 7.67298 24.1759 7.67929 24.1683 7.68552 24.1606 7.69167 24.1529L11.375 19.6809C11.5081 19.5187 11.5987 19.326 11.6388 19.12L12.064 17.0649 11.5825 16.718Z" transform="matrix(1 0 0 1.03846 250 612)"/><path d="M19.7345 11.8156 17.1438 10.9601C16.8106 10.1901 15.6842 7.58333 15.6284 7.47175 15.2119 6.71279 14.4182 6.2377 13.5525 6.22917 13.2085 6.22941 12.869 6.30776 12.5596 6.45829L8.87873 7.90481C8.54801 8.03779 8.28569 8.29966 8.15208 8.6301L6.83583 11.7883C6.70334 12.1222 6.70968 12.4952 6.85344 12.8245 6.98888 13.1388 7.24555 13.385 7.56519 13.5073 7.7223 13.5711 7.89013 13.6044 8.05973 13.6053 8.6015 13.6139 9.09079 13.2827 9.28417 12.7766L10.3188 10.1541 10.8455 9.9534C10.8467 9.95272 10.8482 9.95307 10.8489 9.95424 10.8493 9.95489 10.8493 9.95567 10.849 9.95638L10.0812 13.7042C9.99586 14.2886 10.1738 14.8807 10.5671 15.3213L10.5671 15.3213 14.5708 18.2046 14.5708 23.2646C14.5589 23.9591 15.0716 24.5513 15.7606 24.6391 16.4882 24.7112 17.1364 24.1798 17.2085 23.4522 17.2128 23.4094 17.2149 23.3664 17.215 23.3234L17.215 17.5405C17.2203 17.1219 17.0221 16.7267 16.6833 16.4808L14.2729 14.7165 14.5684 13.24 14.6792 12.655 15.1396 10.2535C15.1722 10.1075 15.0804 9.96271 14.9344 9.93005 14.7884 9.89742 14.6436 9.98928 14.611 10.1352 14.6097 10.141 14.6086 10.1469 14.6077 10.1527L14.1535 12.551 13.7077 14.7799C13.6873 14.8831 13.7285 14.9886 13.8133 15.0507L16.3673 16.9195C16.5636 17.0641 16.6773 17.2951 16.6722 17.5389L16.6722 23.2917C16.6791 23.6718 16.418 24.0043 16.0471 24.0879 15.6238 24.1724 15.2121 23.8978 15.1276 23.4745 15.1177 23.4248 15.1126 23.3743 15.1125 23.3236L15.1125 18.0662C15.1125 17.9793 15.0708 17.8978 15.0004 17.8468L10.8837 14.8804C10.6242 14.6935 10.4985 14.3717 10.5625 14.0584L11.4798 9.57721C11.5098 9.43066 11.4154 9.28755 11.2688 9.25754 11.2184 9.24723 11.1661 9.25148 11.118 9.26981L10.0133 9.69042C9.9421 9.71755 9.88569 9.7734 9.85779 9.84425L8.77852 12.5824C8.66632 12.8799 8.37753 13.0732 8.05973 13.0636 7.95744 13.0627 7.85628 13.042 7.76181 13.0027 7.57648 12.9319 7.42763 12.7892 7.34906 12.607 7.26378 12.412 7.2595 12.1912 7.33715 11.993L8.65258 8.83513C8.73056 8.6408 8.88425 8.48662 9.07833 8.40802L12.7798 6.95256C13.0202 6.83386 13.2845 6.7717 13.5525 6.77083 14.2179 6.77758 14.8283 7.14163 15.1504 7.7239 15.2005 7.82844 16.1029 9.91385 16.6963 11.2886 16.7267 11.3589 16.7859 11.4128 16.8588 11.4362L19.565 12.33C19.9709 12.4703 20.1888 12.9107 20.0541 13.3185 19.9403 13.6336 19.6441 13.846 19.3091 13.8526 19.222 13.85 19.1357 13.8365 19.052 13.8125L15.9052 12.7646C15.6979 12.6865 15.5282 12.5323 15.4305 12.3335L15.3332 12.1087 15.1824 12.906C15.3311 13.0717 15.5179 13.1988 15.7268 13.2763L18.9028 14.3325C19.035 14.3701 19.1716 14.3903 19.3091 14.3926 19.8727 14.3845 20.3726 14.0287 20.5649 13.4989 20.7995 12.8048 20.4281 12.0518 19.7345 11.8156Z" transform="matrix(1 0 0 1.03846 250 612)"/></g></svg>